<svg xmlns="http://www.w3.org/2000/svg" width="24" height="24" fill="none" viewBox="0 0 24 24">
  <path fill="#F60" d="M15 15.75a3.003 3.003 0 0 1-3-3v-1.5a.75.75 0 0 1 .75-.75H15a.75.75 0 0 1 .75.75V15a.75.75 0 0 1-.75.75ZM13.5 12v.75a1.5 1.5 0 0 0 .75 1.299V12h-.75Z"/>
  <path fill="#999" d="M7.5 8.625h-6a.75.75 0 0 1 0-1.5h6a.75.75 0 0 1 0 1.5Z"/>
  <path fill="#CCC" d="M10.996 5.062a.743.743 0 0 0-.589-.181l-3 .375A.75.75 0 0 0 6.75 6v3.75a.75.75 0 0 0 .657.744l3 .375a.75.75 0 0 0 .843-.744v-4.5a.75.75 0 0 0-.254-.563Z"/>
  <path fill="#F90" d="M19.5 10.5H15a.75.75 0 0 0-.75.75v8.25c0 .414.336.75.75.75h4.5a.75.75 0 0 0 .75-.75v-8.25a.75.75 0 0 0-.75-.75Z"/>
  <path fill="#FFAD33" d="M20.25 3.75H10.5a.75.75 0 0 0-.75.75v6.75a.75.75 0 0 0 .75.75h9.75a3.003 3.003 0 0 0 3-3V6.75a3.003 3.003 0 0 0-3-3Z"/>
  <path fill="#F60" d="M18.75 7.5H16.5a.75.75 0 1 1 0-1.5h2.25a.75.75 0 1 1 0 1.5Zm0 1.875H16.5a.75.75 0 1 1 0-1.5h2.25a.75.75 0 1 1 0 1.5Z"/>
</svg>
