<svg xmlns="http://www.w3.org/2000/svg" width="24" height="24" fill="none" viewBox="0 0 24 24">
  <path fill="#FFE077" d="m23.25 11.625-4.368-7.297s-.035.172-1.163 1.95l4.406 5.347h1.125Z"/>
  <path fill="#FFC244" d="m19.582 5.499-.7-1.171s-.035.172-1.163 1.95l.683.829 1.18-1.608Z"/>
  <path fill="#4E3D4D" fill-rule="evenodd" d="M19.5 11.25v.94a.375.375 0 0 0 .75 0v-.94a.375.375 0 0 0-.75 0Z" clip-rule="evenodd"/>
  <path fill="#615260" d="M19.5 12.446c0 1.204.975 2.179 2.179 2.179a1.57 1.57 0 0 0 1.571-1.571v-1.429H19.5v.821Z"/>
  <path fill="#4E3D4D" d="M22.5 11.625v1.054a1.57 1.57 0 0 1-1.571 1.571 2.2 2.2 0 0 1-.581-.078c.368.284.83.453 1.33.453a1.57 1.57 0 0 0 1.572-1.571v-1.429h-.75Z"/>
  <path fill="#FFE077" d="m12.75 13.928 6.154-8.663c.562-.795-.004-1.894-.975-1.894-.42 0-.81.222-1.028.582l-4.151 6.922v3.053Z"/>
  <path fill="#4BC3EF" d="M6.75 10.115v-5.24h4.384l1.616 5.24h-6Z"/>
  <path fill="#7AD7EE" d="m6.75 9.627 2.743-4.752h.867l-3.026 5.24H6.75v-.488Zm4.793-3.426-2.26 3.914h-1.3l3.026-5.24h.125l.409 1.326Z"/>
  <path fill="#615260" d="M9 14.25H6v2.25h3v-2.25Z"/>
  <path fill="#615260" fill-rule="evenodd" d="M4.875 10.5V6.375c0-.1-.04-.195-.11-.265l-.75-.75a.375.375 0 0 0-.53.53l.64.64v3.97a.375.375 0 0 0 .75 0Z" clip-rule="evenodd"/>
  <path fill="#FFE077" fill-rule="evenodd" d="M7.125 10.115v-5.24a.375.375 0 0 0-.75 0v5.24a.375.375 0 0 0 .75 0Z" clip-rule="evenodd"/>
  <path fill="#FFC244" fill-rule="evenodd" d="m10.776 4.986 1.616 5.24a.376.376 0 0 0 .716-.221l-1.615-5.24a.375.375 0 0 0-.717.22Z" clip-rule="evenodd"/>
  <path fill="#FFE077" d="M13.125 10.115v3.813a.696.696 0 0 1-.697.697h-9.48a.696.696 0 0 1-.698-.697v-.803l.75-.75V10.95c0-.454.371-.825.825-.825l9.3-.01Z"/>
  <path fill="#FFC244" d="M12.375 10.116h.75v3.812a.696.696 0 0 1-.697.697h-9.48a.696.696 0 0 1-.698-.697v-.053h9.428a.696.696 0 0 0 .697-.697v-3.062Z"/>
  <path fill="#FFE077" fill-rule="evenodd" d="M6 5.25h6.75a.375.375 0 0 0 0-.75H6a.375.375 0 0 0 0 .75Z" clip-rule="evenodd"/>
  <path fill="#FFC244" fill-rule="evenodd" d="m7.985 11.89 1.5 1.5c.07.07.166.11.265.11h1.5a.375.375 0 0 0 0-.75H9.905l-1.39-1.39a.375.375 0 0 0-.53.53Z" clip-rule="evenodd"/>
  <path fill="#615260" fill-rule="evenodd" d="M10.5 12h.75a.375.375 0 0 0 0-.75h-.75a.375.375 0 0 0 0 .75Z" clip-rule="evenodd"/>
  <path fill="#615260" d="M2.25 19.125a1.5 1.5 0 1 1 0-3h10.5a1.5 1.5 0 1 1 0 3H2.25Z"/>
  <path fill="#4E3D4D" fill-rule="evenodd" d="M2.25 19.5h10.5a1.874 1.874 0 1 0 0-3.75H2.25a1.874 1.874 0 1 0 0 3.75Zm0-.75a1.125 1.125 0 1 1 0-2.25h10.5a1.125 1.125 0 1 1 0 2.25H2.25Z" clip-rule="evenodd"/>
  <path fill="#DBD8DB" d="M12.75 18a.375.375 0 1 0 0-.75.375.375 0 0 0 0 .75Zm-2.636 0a.375.375 0 1 0 0-.75.375.375 0 0 0 0 .75ZM7.09 18a.375.375 0 1 0 0-.75.375.375 0 0 0 0 .75Zm-2.637 0a.375.375 0 1 0 0-.75.375.375 0 0 0 0 .75Zm-2.262 0a.375.375 0 1 0 0-.75.375.375 0 0 0 0 .75Z"/>
  <path fill="#4E3D4D" fill-rule="evenodd" d="M.75 20.25h22.5a.375.375 0 0 0 0-.75H.75a.375.375 0 0 0 0 .75Z" clip-rule="evenodd"/>
</svg>
