<svg xmlns="http://www.w3.org/2000/svg" width="24" height="24" fill="none" viewBox="0 0 24 24">
  <path fill="#2096D0" d="m12.02 15.726-2.461 2.46L5.245 22.5l-2.614-2.615 6.775-6.775 2.615 2.616Z"/>
  <path fill="#1A1A1A" d="M5.25 22.734a.233.233 0 0 1-.166-.068l-2.62-2.615a.235.235 0 0 1 0-.332l6.776-6.775a.235.235 0 0 1 .332 0l2.616 2.618a.235.235 0 0 1 0 .332L5.41 22.666a.234.234 0 0 1-.161.068Zm-2.288-2.849 2.288 2.283 6.443-6.442-2.282-2.284-6.448 6.443Z"/>
  <path fill="#2096D0" d="M22.5 5.245 18.187 9.56l-2.461 2.462-2.616-2.615 6.775-6.775L22.5 5.245Z"/>
  <path fill="#1A1A1A" d="M15.726 12.255a.233.233 0 0 1-.164-.068l-2.615-2.614a.235.235 0 0 1 0-.332l6.775-6.775a.241.241 0 0 1 .332 0L22.67 5.08a.236.236 0 0 1 0 .332l-6.777 6.776a.235.235 0 0 1-.166.067Zm-2.284-2.85 2.284 2.284 6.442-6.439-2.283-2.288-6.443 6.444Z"/>
  <path fill="#25B5D1" d="M9.406 13.11 2.63 19.885l-1.13-1.13 6.776-6.775 1.13 1.13Z"/>
  <path fill="#1A1A1A" d="M2.63 20.12a.237.237 0 0 1-.166-.069l-1.125-1.13a.236.236 0 0 1 0-.332l6.771-6.776a.236.236 0 0 1 .332 0l1.125 1.124a.236.236 0 0 1 0 .332l-6.77 6.782a.235.235 0 0 1-.166.069Zm-.798-1.365.799.8 6.443-6.445-.798-.798-6.444 6.443Z"/>
  <path fill="#25B5D1" d="M19.885 2.63 13.11 9.407l-1.13-1.13L18.755 1.5l1.13 1.13Z"/>
  <path fill="#1A1A1A" d="M13.11 9.64a.235.235 0 0 1-.166-.068L11.82 8.447a.236.236 0 0 1 0-.332l6.774-6.776a.241.241 0 0 1 .332 0l1.13 1.13a.235.235 0 0 1 0 .332l-6.78 6.77a.235.235 0 0 1-.165.07Zm-.798-1.364.798.798 6.443-6.443-.798-.8-6.443 6.445Z"/>
  <path fill="#2096D0" d="m19.885 2.63-1.13-1.13 1.13 1.13Z"/>
  <path fill="#1A1A1A" d="M19.885 2.865a.235.235 0 0 1-.166-.068l-1.13-1.131a.235.235 0 0 1 .332-.332l1.13 1.13a.235.235 0 0 1-.166.4v.001Z"/>
  <path fill="#F9BB3D" d="m18.875 20.208-1.186 1.185h-.001l-5.667-5.667-3.745-3.746-3.468-3.467 1.186-1.185 4.598 4.597 2.615 2.615 5.668 5.668Z"/>
  <path fill="#1A1A1A" d="M17.689 21.627a.237.237 0 0 1-.167-.068L4.642 8.679a.234.234 0 0 1 0-.332l1.186-1.185a.233.233 0 0 1 .331 0l12.88 12.88a.232.232 0 0 1 0 .33l-1.184 1.19a.235.235 0 0 1-.166.065ZM5.139 8.512l12.549 12.55.855-.854L5.994 7.658l-.855.854Z"/>
  <path fill="#F9BB3D" d="m21.393 17.689-1.185 1.186-9.414-9.414-3.467-3.467 1.185-1.186 3.468 3.468 1.13 1.13 2.616 2.615 5.667 5.668Z"/>
  <path fill="#1A1A1A" d="M20.208 19.11a.235.235 0 0 1-.166-.07L7.162 6.16a.234.234 0 0 1 0-.332l1.182-1.185a.24.24 0 0 1 .33 0l12.889 12.88a.235.235 0 0 1 0 .332l-1.186 1.185a.23.23 0 0 1-.17.07ZM7.658 5.993l12.55 12.549.854-.854-12.55-12.55-.854.855Z"/>
  <path fill="#1A1A1A" d="M4.808 8.747a.235.235 0 0 1-.166-.403l3.702-3.702a.234.234 0 0 1 .384.253.236.236 0 0 1-.051.078L4.974 8.678a.235.235 0 0 1-.166.069Z"/>
  <path fill="#FAE058" d="m20.208 18.875-1.333 1.333-5.668-5.668-2.615-2.615-4.598-4.597 1.333-1.334 3.467 3.467 9.414 9.414Z"/>
  <path fill="#1A1A1A" d="M18.875 20.442a.235.235 0 0 1-.166-.07L5.829 7.493a.234.234 0 0 1 0-.33l1.333-1.334a.234.234 0 0 1 .33 0l12.88 12.88a.233.233 0 0 1 0 .332l-1.332 1.333a.23.23 0 0 1-.165.07ZM6.325 7.327l12.55 12.548 1-1L7.327 6.325 6.325 7.327Z"/>
  <path fill="#1A1A1A" d="M5.994 7.562a.235.235 0 0 1-.167-.401l1.334-1.333a.234.234 0 0 1 .401.164.24.24 0 0 1-.067.165L6.16 7.493a.234.234 0 0 1-.165.069Z"/>
  <path fill="#F9BB3D" d="m5.813 2.105 1.312 1.312-3.706 3.708-1.312-1.313a2.025 2.025 0 0 1 0-2.863l.843-.843a2.025 2.025 0 0 1 2.862-.001Z"/>
  <path fill="#1A1A1A" d="M3.42 7.36a.234.234 0 0 1-.166-.07L1.942 5.979a2.261 2.261 0 0 1 0-3.195l.843-.843a2.261 2.261 0 0 1 3.195 0l1.313 1.312a.233.233 0 0 1 0 .331L3.585 7.291a.233.233 0 0 1-.165.068Zm.96-5.613a1.788 1.788 0 0 0-1.268.524l-.843.843a1.793 1.793 0 0 0 0 2.532L3.42 6.794l3.375-3.375-1.15-1.148a1.781 1.781 0 0 0-1.266-.524Z"/>
  <path fill="#F2F2F2" d="m22.468 22.468-2.59-.582-2.19-.493 1.187-1.185 1.333-1.333 1.185-1.186.493 2.19.582 2.59Z"/>
  <path fill="#1A1A1A" d="M22.47 22.703a.184.184 0 0 1-.052-.006l-4.782-1.075a.235.235 0 0 1-.114-.394l3.705-3.705a.234.234 0 0 1 .394.114l1.075 4.781a.234.234 0 0 1-.228.282l.001.003Zm-4.313-1.445 4.003.9-.901-4.002-3.102 3.102Z"/>
  <path fill="#F2F2F2" d="M8.512 4.808 4.808 8.513l-1.39-1.388 3.706-3.706 1.387 1.389Z"/>
  <path fill="#1A1A1A" d="M4.808 8.747a.235.235 0 0 1-.166-.069L3.254 7.291a.234.234 0 0 1 0-.332L6.96 3.254a.236.236 0 0 1 .332.003L8.67 4.636a.233.233 0 0 1 .01.34L4.973 8.677a.235.235 0 0 1-.166.069ZM3.75 7.125l1.058 1.057 3.374-3.375L7.125 3.75 3.75 7.125Z"/>
  <path fill="#3E3E3F" d="m21.886 19.879.582 2.59-2.59-.583 2.008-2.007Z"/>
  <path fill="#1A1A1A" d="M22.47 22.703a.187.187 0 0 1-.052-.006l-2.59-.582a.235.235 0 0 1-.115-.395l2.007-2.006a.234.234 0 0 1 .395.113l.582 2.59a.236.236 0 0 1-.228.282v.004Zm-2.126-.953 1.813.408-.407-1.814-1.406 1.406ZM7.406 20.577a.234.234 0 0 1-.166-.068l-1.003-.999a.234.234 0 1 1 .332-.332l.998.999a.236.236 0 0 1 0 .332.234.234 0 0 1-.16.068Zm2.157-2.157a.234.234 0 0 1-.166-.068l-1.003-.999a.234.234 0 1 1 .331-.332l.999.999a.234.234 0 0 1-.162.4Zm1.736-1.74a.234.234 0 0 1-.166-.068l-.999-.999a.236.236 0 0 1-.054-.257.236.236 0 0 1 .219-.146.235.235 0 0 1 .166.071l1 1a.235.235 0 0 1-.166.399Zm5.147-5.149a.237.237 0 0 1-.166-.068l-.999-.998a.235.235 0 0 1-.002-.334.236.236 0 0 1 .258-.05.253.253 0 0 1 .076.053l.999.999a.234.234 0 0 1 0 .332.237.237 0 0 1-.166.066Zm1.741-1.738a.23.23 0 0 1-.165-.07l-1-.998a.236.236 0 0 1-.054-.257.236.236 0 0 1 .219-.145.234.234 0 0 1 .166.071l.999.999a.235.235 0 0 1-.166.4h.002Zm2.157-2.157a.234.234 0 0 1-.166-.069l-1-.998a.235.235 0 0 1 .332-.332l.999.999a.236.236 0 0 1 0 .332.233.233 0 0 1-.165.068Z"/>
</svg>
