<svg xmlns="http://www.w3.org/2000/svg" width="24" height="24" fill="none" viewBox="0 0 24 24">
  <path fill="#00ACEA" d="M19.892 7.177c.398.04.71.362.71.753 0 .418-.356.758-.794.758h-.003l.023-.123H3.796l.09.49a.678.678 0 0 1-.488-.64c0-.344.27-.627.618-.668V7.72c0-.534.455-.968 1.014-.968.05 0 .1.003.15.01a.943.943 0 0 1-.018-.178c0-.498.395-.908.9-.962.177-.54.705-.933 1.328-.933a1.405 1.405 0 0 1 1.173.617c.23-.08.48-.091.716-.034.112-.85.874-1.509 1.795-1.509.987 0 1.791.759 1.808 1.697.071.039.139.084.202.135.198-.621.804-1.074 1.52-1.074a1.592 1.592 0 0 1 1.47.947h.018c.072 0 .144.005.216.015a1.139 1.139 0 0 1 .92-.457c.55 0 1.01.38 1.106.878.1-.024.203-.036.306-.036.693 0 1.257.538 1.257 1.2 0 .036-.002.073-.005.109Z"/>
  <path fill="#00EFD1" d="m3.886 9.055-.09-.49h16.032l-.023.123-.234 1.288-.024-.005H4.052l-.166-.916Z"/>
  <path fill="#F4B844" d="m19.571 9.976-1.15 6.323H5.203L4.052 9.971h15.494l.025.005Z"/>
  <path fill="#00ACEA" d="M16.5 20.237a1.36 1.36 0 1 0 0-2.719 1.36 1.36 0 0 0 0 2.719Zm-9.375 0a1.36 1.36 0 1 0 0-2.719 1.36 1.36 0 0 0 0 2.719Z"/>
  <path fill="#083863" d="M7.125 17.143a1.734 1.734 0 1 0 0 3.468 1.734 1.734 0 0 0 0-3.468Zm0 2.719a.985.985 0 1 1 0-1.97.985.985 0 0 1 0 1.97Zm9.375-2.719a1.734 1.734 0 1 0 0 3.469 1.734 1.734 0 0 0 0-3.469Zm0 2.719a.985.985 0 1 1 0-1.97.985.985 0 0 1 0 1.97Zm3.76-12.977c-.093-.783-.785-1.392-1.62-1.392h-.05a1.506 1.506 0 0 0-1.362-.842c-.358 0-.705.125-.98.353a2.01 2.01 0 0 0-3.119-.22c-.303-.811-1.115-1.396-2.055-1.396-.966 0-1.804.612-2.084 1.473-.095 0-.19.007-.283.023a1.785 1.785 0 0 0-1.317-.57 1.763 1.763 0 0 0-1.598.979A1.356 1.356 0 0 0 4.8 6.395a1.373 1.373 0 0 0-1.133 1.06 1.034 1.034 0 0 0-.115 1.861l1.282 7.057a.381.381 0 0 0 .369.314h13.219a.372.372 0 0 0 .36-.314l1.14-6.33.195-1.022c.49-.135.856-.573.856-1.09a1.125 1.125 0 0 0-.712-1.046ZM4.247 8.953h15.132l-.12.656H4.366l-.12-.656Zm13.862 6.985H5.516L4.5 10.358h14.622l-1.015 5.579Zm1.926-7.679a.37.37 0 0 0-.206-.056H3.887a.306.306 0 0 1 .181-.077.395.395 0 0 0 .338-.396v-.01c0-.327.28-.593.632-.593a.57.57 0 0 1 .092.007.373.373 0 0 0 .419-.443.573.573 0 0 1-.012-.107c0-.302.243-.555.566-.59a.375.375 0 0 0 .316-.256c.13-.397.53-.674.97-.674a1.026 1.026 0 0 1 .862.45.375.375 0 0 0 .435.147.901.901 0 0 1 .504-.024.375.375 0 0 0 .461-.315c.09-.675.7-1.184 1.423-1.184.777 0 1.42.596 1.433 1.329a.375.375 0 0 0 .196.323c.052.027.1.06.146.097a.375.375 0 0 0 .592-.178c.153-.48.63-.813 1.162-.813a1.211 1.211 0 0 1 1.127.72.375.375 0 0 0 .345.227h.022a1.2 1.2 0 0 1 .159.011.375.375 0 0 0 .354-.149.767.767 0 0 1 .617-.304c.364 0 .674.241.738.574a.375.375 0 0 0 .456.293.94.94 0 0 1 .218-.025c.487 0 .882.37.882.824a.802.802 0 0 1-.003.076.375.375 0 0 0 .336.407c.21.02.373.19.373.383a.382.382 0 0 1-.193.326Z"/>
</svg>
