<svg xmlns="http://www.w3.org/2000/svg" width="24" height="24" fill="none" viewBox="0 0 24 24">
  <g clip-path="url(#a)">
    <path fill="#615260" d="M5.25 12.742V9.008c0-.42.338-.757.758-.757h11.985c.42 0 .757.338.757.758v3.723l-13.5.011Z"/>
    <path fill="#4E3D4D" d="M16.492 8.25h1.5c.42 0 .758.338.758.758v3.723h-1.5V9.008a.755.755 0 0 0-.758-.758Z"/>
    <path fill="#ECEAEC" d="M18.75 12.355V23.25H5.25V12.367l13.5-.012Z"/>
    <path fill="#DBD8DB" d="m17.25 12.357 1.5-.002V23.25h-1.5V12.357Z"/>
    <path fill="#FFE077" d="M6.75 8.25V15c0 .412.338.75.75.75s.75-.338.75-.75v-1.5c0-.412.338-.75.75-.75s.75.338.75.75v3.75c0 .413.338.75.75.75s.75-.337.75-.75v-6c0-.412.338-.75.75-.75s.75.338.75.75v2.25c0 .412.338.75.75.75s.75-.338.75-.75V8.25h-7.5ZM13.5 18a.752.752 0 0 1-.75-.75v-.75c0-.413.338-.75.75-.75s.75.337.75.75v.75c0 .413-.338.75-.75.75Z"/>
    <path fill="#FFE077" d="M13.5 18a.752.752 0 0 1-.75-.75v-.75c0-.413.338-.75.75-.75s.75.337.75.75v.75c0 .413-.338.75-.75.75Z"/>
    <path fill="#FFC244" fill-rule="evenodd" d="M10.125 17.899a.752.752 0 0 0 1.125-.649v-6c0-.276.151-.519.375-.649a.752.752 0 0 0-1.125.649v6a.751.751 0 0 1-.375.649Zm-3-2.25A.752.752 0 0 0 8.25 15v-1.5c0-.276.151-.519.375-.649A.752.752 0 0 0 7.5 13.5V15a.751.751 0 0 1-.375.649ZM14.25 8.25h-.75v5.25a.751.751 0 0 1-.375.649.752.752 0 0 0 1.125-.649V8.25Z" clip-rule="evenodd"/>
    <path fill="#615260" d="M13.5 2.25h-3a.752.752 0 0 1-.75-.75c0-.413.338-.75.75-.75h3c.412 0 .75.337.75.75s-.338.75-.75.75Z"/>
    <path fill="#4E3D4D" d="M13.5.75c.412 0 .75.337.75.75s-.338.75-.75.75h-1.125c.412 0 .75-.337.75-.75a.752.752 0 0 0-.75-.75H13.5Z"/>
    <path fill="#000" d="M23.25 22.875h-.75c-.225 0-.375.15-.375.375s.15.375.375.375h.75c.225 0 .375-.15.375-.375s-.15-.375-.375-.375Zm-2.25 0h-1.875v-10.5h.375c.637 0 1.163-.525 1.163-1.162v-3.45c0-1.988-.9-3.863-2.438-5.138-.15-.15-.413-.112-.525.038-.113.15-.113.412.038.525a5.833 5.833 0 0 1 2.175 4.575v3.45a.416.416 0 0 1-.413.412h-.375V9c0-.637-.525-1.125-1.125-1.125H6c-.638 0-1.125.525-1.125 1.125v2.625H4.5c-.225 0-.412-.188-.412-.375V7.8A5.847 5.847 0 0 1 9.45 1.95c.15.375.563.675 1.05.675h3c.488 0 .9-.3 1.05-.712.637.075 1.237.187 1.8.45.037.037.375.075.487-.188.076-.187 0-.412-.187-.487-.675-.3-1.35-.45-2.1-.525-.15-.45-.563-.788-1.05-.788h-3c-.488 0-.938.338-1.05.788a6.623 6.623 0 0 0-6.112 6.6v3.487c0 .637.524 1.125 1.162 1.125h.375v10.5H.75c-.225 0-.375.15-.375.375s.15.375.375.375H15.6c.225 0 .375-.15.375-.375s-.15-.375-.375-.375H5.625v-9.75h.75V15c0 .637.487 1.125 1.125 1.125.637 0 1.125-.488 1.125-1.125v-1.5c0-.225.15-.375.375-.375s.375.15.375.375v3.75c0 .637.488 1.125 1.125 1.125s1.125-.488 1.125-1.125c0-.225-.15-.375-.375-.375s-.375.15-.375.375-.15.375-.375.375-.375-.15-.375-.375V13.5c0-.637-.488-1.125-1.125-1.125s-1.125.488-1.125 1.125V15c0 .225-.15.375-.375.375s-.375-.15-.375-.375v-3.713c0-.225-.15-.375-.375-.375s-.375.15-.375.375v1.088h-.75V9c0-.225.15-.375.375-.375h.375v1.2c0 .225.15.375.375.375s.375-.15.375-.375v-1.2h6.75V13.5c0 .225-.15.375-.375.375s-.375-.15-.375-.375v-2.25c0-.637-.488-1.125-1.125-1.125s-1.125.488-1.125 1.125v4.5c0 .225.15.375.375.375s.375-.15.375-.375v-2.625h.75v.375c0 .637.488 1.125 1.125 1.125s1.125-.488 1.125-1.125v-.375h3.75v9.75h-1.087c-.226 0-.375.15-.375.375s.15.375.375.375H21c.225 0 .375-.15.375-.375s-.15-.375-.375-.375ZM10.5 1.125h3c.225 0 .375.15.375.375s-.15.375-.375.375h-3c-.225 0-.375-.15-.375-.375s.15-.375.375-.375Zm1.875 11.25h-.75V11.25c0-.225.15-.375.375-.375s.375.15.375.375v1.125Zm6 0h-3.75v-3.75H18c.225 0 .375.15.375.375v3.375Z"/>
    <path fill="#000" d="M13.5 15.375c-.637 0-1.125.488-1.125 1.125v.75c0 .637.488 1.125 1.125 1.125s1.125-.488 1.125-1.125v-.75c0-.637-.488-1.125-1.125-1.125Zm.375 1.875c0 .225-.15.375-.375.375s-.375-.15-.375-.375v-.75c0-.225.15-.375.375-.375s.375.15.375.375v.75Z"/>
  </g>
  <defs>
    <clipPath id="a">
      <path fill="#fff" d="M0 0h24v24H0z"/>
    </clipPath>
  </defs>
</svg>
