<svg xmlns="http://www.w3.org/2000/svg" width="24" height="24" fill="none" viewBox="0 0 24 24">
  <path fill="#4AA5FF" d="m9.866 12.632-4.242-2.121-3.447 3.446a2.242 2.242 0 0 0-.46.66c-.87 1.72-.76 4.363.194 5.97 1.608.956 4.258 1.062 5.97.194.49-.097 3.676-3.549 4.107-3.906l-2.122-4.243Z"/>
  <path fill="#21257C" d="M5.086 21.763a7.145 7.145 0 0 1-3.352-.845.375.375 0 0 1-.154-.154c-1.095-1.857-1.038-4.68-.204-6.302.128-.283.308-.542.536-.77l3.447-3.447a.373.373 0 0 1 .432-.07l4.243 2.122a.375.375 0 0 1 .168.167l2.12 4.243a.375.375 0 0 1-.07.433l-3.446 3.446a2.61 2.61 0 0 1-.77.537 7.21 7.21 0 0 1-2.95.64ZM2.19 20.309c1.622.93 4.149.857 5.538.13.368-.04 3.466-3.361 3.804-3.638l-1.944-3.89-3.89-1.944c-.292.355-3.587 3.424-3.638 3.804-.725 1.388-.8 3.919.13 5.538Z"/>
  <path fill="#99ECFC" d="M2.615 17.612a5.25 5.25 0 0 1 .274-1.88l-.274 1.88Z"/>
  <path fill="#E6F3FF" d="M2.614 17.986c-.748.025-.222-1.93-.08-2.375.164-.464.86-.23.71.24a4.858 4.858 0 0 0-.255 1.745.378.378 0 0 1-.375.39Zm-.175 1.01c-.345-.35.185-.873.533-.53.345.35-.183.873-.533.53ZM14.374 6.533l-5.569 5.569 1.591 1.59 5.569-5.568-1.591-1.59Z"/>
  <path fill="#21257C" d="M10.396 14.068a.374.374 0 0 1-.265-.11l-1.59-1.591a.375.375 0 0 1 0-.53l5.568-5.569a.375.375 0 0 1 .53 0L16.23 7.86a.376.376 0 0 1 0 .53l-5.568 5.569a.374.374 0 0 1-.266.11Zm-1.06-1.966 1.06 1.06 5.039-5.038-1.061-1.06-5.038 5.038Z"/>
  <path fill="#E6F3FF" d="M19.677 5.473 17.026 2.82a.75.75 0 0 0-1.061 0l-1.62 1.62a1.46 1.46 0 0 0 0 2.064l1.648 1.647c.57.57 1.495.57 2.065 0l1.62-1.619a.75.75 0 0 0 0-1.06Zm-2.651 1.59-1.591-1.59 1.06-1.061 1.591 1.591-1.06 1.06Z"/>
  <path fill="#21257C" d="M17.026 8.954c-.47 0-.94-.178-1.298-.536L14.081 6.77c-.712-.683-.713-1.912 0-2.595l1.619-1.62a1.152 1.152 0 0 1 1.59 0l2.653 2.653a1.128 1.128 0 0 1 0 1.59l-1.62 1.62a1.83 1.83 0 0 1-1.297.536Zm-.53-5.978a.37.37 0 0 0-.265.11l-1.62 1.62a1.09 1.09 0 0 0 0 1.534l1.648 1.647a1.087 1.087 0 0 0 1.534 0l1.62-1.619a.376.376 0 0 0-.001-.53L16.76 3.086a.374.374 0 0 0-.266-.11Zm.53 4.462a.374.374 0 0 1-.265-.11l-1.592-1.59a.377.377 0 0 1 0-.53l1.061-1.061a.375.375 0 0 1 .53 0l1.591 1.59a.375.375 0 0 1 0 .531l-1.06 1.06a.374.374 0 0 1-.265.11Zm-1.061-1.965 1.06 1.06.531-.53-1.06-1.06-.531.53Zm-5.836 16.29h-.75c-.493-.008-.493-.742 0-.75h.75c.493.008.493.742 0 .75ZM2.416 11.056a.375.375 0 0 1-.278-.123l-.504-.555a.376.376 0 0 1 .555-.504l.505.555c.221.227.035.638-.278.627Zm1.37-.342a.374.374 0 0 1-.347-.233l-.284-.694a.374.374 0 1 1 .693-.284l.285.694a.377.377 0 0 1-.347.517Zm-1.84 1.674c-.13.023-.716-.343-.838-.392-.432-.236-.092-.885.349-.664l.664.349c.346.167.202.721-.174.707Z"/>
  <path fill="#4AA5FF" d="M21.76 21.37c.921-1.181.002-3.016-1.506-2.982 1.03-1.344-.205-3.323-1.877-2.962-1.744-1.807-4.872-.268-4.464 2.24-1.721.226-2.527 2.421-1.35 3.703h9.197Z"/>
  <path fill="#21257C" d="M22.877 20.994h-.505c.457-1.207-.316-2.62-1.534-2.92.656-1.52-.696-3.295-2.34-3.063-1.912-1.766-5.129-.265-4.987 2.342-1.487.393-2.346 2.232-1.628 3.641h-.256c-.49.008-.495.742 0 .75h11.25c.489-.006.497-.741 0-.75Zm-1.33 0h-8.782c-1.423-1.912 1.28-4.108 2.884-2.374.328.363.885-.135.558-.501a2.63 2.63 0 0 0-1.955-.875c0-1.24 1.01-2.25 2.25-2.25.612 0 1.181.24 1.602.674.048.035.096.073.153.09.156.05.352-.024.495-.013.827 0 1.5.672 1.5 1.5.018.81-.697 1.512-1.5 1.5-.093 0-.195-.01-.31-.032a.373.373 0 0 0-.437.301c-.074.437.443.486.747.48.63 0 1.236-.272 1.66-.733 1.044.08 1.695 1.335 1.136 2.233Z"/>
</svg>
