<svg xmlns="http://www.w3.org/2000/svg" width="24" height="24" fill="none" viewBox="0 0 24 24">
  <path fill="#DB3529" d="m9.412 15.422 6.961-2.883.314-4.148-14.095-.638 6.82 7.669Z"/>
  <path fill="#504C43" d="M4.688 14.948a2.812 2.812 0 0 0 0 5.447 2.816 2.816 0 0 0 2.109-2.723c0-1.308-.895-2.41-2.11-2.724Z"/>
  <path fill="#35322B" d="M3.984 19.078a1.406 1.406 0 1 0 0-2.812 1.406 1.406 0 0 0 0 2.812Z"/>
  <path fill="#B4271E" d="M14.99 20.484a1.11 1.11 0 0 1-1.021-.675l-1.89-4.48a.461.461 0 0 0-.609-.25L.881 19.463a.468.468 0 1 1-.356-.862l11.04-4.57a.94.94 0 0 1 1.223.501l2.071 4.922c.024.056.08.094.141.094.08 0 .145-.061.155-.136l.764-7.003 4.462-6.174h3.385v.938h-2.813l-4.12 5.503-.74 6.82c-.062.563-.535.99-1.102.99Z"/>
  <path fill="#504C43" d="M20.953 6.234h2.813v.938h-2.813v-.938Z"/>
  <path fill="#F0917B" d="M16.683 8.325 2.53 7.688s.042-.427.633-1.196c.633-.82 2.11-.726 2.11-.726s0-.947 1.007-1.252c.375.117.586.29.586.29s.656-1.288 1.805-1.288c1.148 0 1.687 1.101 1.687 1.101s1.22-.469 2.11-.234c.89.234 1.219 1.242 1.219 1.242s1.406-.094 2.156.61c.656.613.81 1.804.839 2.09Z"/>
  <path fill="#DB3529" d="M17.11 9.31 2.104 8.7a.485.485 0 0 1-.464-.483c0-.276.23-.497.506-.483l15 .675c.239.01.431.211.431.45 0 .258-.21.46-.469.45Z"/>
  <path fill="#272525" d="m2.196 8.542 6.033 6.78-.35.311-6.033-6.78.35-.31Zm14.187.748.467.036-.175 2.332-.468-.035.176-2.333Z"/>
  <path fill="#272525" d="M14.99 20.719a1.346 1.346 0 0 1-1.237-.82l-1.894-4.482a.238.238 0 0 0-.304-.126L.97 19.678a.7.7 0 0 1-.97-.652c0-.285.169-.538.436-.651l11.039-4.57a1.17 1.17 0 0 1 1.045.075l3.146-1.303.023-.202a.234.234 0 0 1 .042-.113l4.463-6.168a.231.231 0 0 1 .192-.099h.567c.131 0 .235.103.235.235v.937a.252.252 0 0 1-.047.14l-4.083 5.452-.731 6.76a1.341 1.341 0 0 1-1.336 1.2Zm-3.342-5.911c.277 0 .535.164.652.431l1.894 4.481a.875.875 0 0 0 .806.535.87.87 0 0 0 .867-.778l.74-6.82a.23.23 0 0 1 .048-.118l4.064-5.447V6.47h-.22l-4.355 6.023-.028.277a.238.238 0 0 1-.146.192l-3.075 1.275a.97.97 0 0 1 .108.201l1.95 4.641.59-5.419.465.052-.624 5.728a.39.39 0 0 1-.384.347.387.387 0 0 1-.356-.24l-2.072-4.926a.703.703 0 0 0-.919-.375L.614 18.811a.234.234 0 0 0-.145.216c0 .08.037.15.103.196a.244.244 0 0 0 .22.024l10.59-4.388a.752.752 0 0 1 .266-.051Z"/>
  <path fill="#272525" d="M23.766 7.406h-2.813a.232.232 0 0 1-.234-.234v-.938c0-.13.103-.234.234-.234h2.813c.13 0 .234.103.234.234v.938a.232.232 0 0 1-.234.234Zm-2.578-.468h2.343v-.47h-2.343v.47Zm-4.5 1.687h-.01L1.116 7.922a.23.23 0 0 1-.164-.08.24.24 0 0 1-.057-.178c.005-.051.066-.52.68-1.317.548-.713 1.617-.811 2.086-.82.089-.45.427-1.083 1.308-1.28.867-.197 1.51.051 1.828.23.253-.404.9-1.196 1.875-1.196.989 0 1.57.708 1.79 1.05.394-.126 1.318-.375 2.063-.178.778.206 1.172.905 1.317 1.228.422 0 1.5.061 2.161.675.806.76.914 2.25.919 2.311a.23.23 0 0 1-.066.178.214.214 0 0 1-.169.08ZM1.434 7.467l14.986.675c-.065-.426-.248-1.28-.74-1.739-.666-.623-1.969-.548-1.983-.548a.24.24 0 0 1-.24-.16c-.004-.01-.304-.89-1.054-1.087-.806-.211-1.955.22-1.964.225a.235.235 0 0 1-.295-.117c-.014-.033-.488-.966-1.472-.966-.994 0-1.59 1.148-1.594 1.162a.232.232 0 0 1-.16.122.233.233 0 0 1-.196-.051c-.024-.019-.638-.506-1.65-.281-.947.215-.97 1.03-.97 1.064a.227.227 0 0 1-.075.168.24.24 0 0 1-.174.061c-.014 0-1.36-.075-1.908.638a3.92 3.92 0 0 0-.51.834Z"/>
  <path fill="#272525" d="M9.96 7.458c-.276-.61-.744-.98-1.391-1.102-.492-.094-.896-.01-.9-.01a.232.232 0 0 1-.281-.262c.004-.023.075-.632-.643-1.078l.249-.398c.642.398.815.919.853 1.247.201-.014.492-.02.81.042a2.316 2.316 0 0 1 1.726 1.369l-.422.192Zm7.168 2.086H17.1L.694 8.878a.72.72 0 1 1 .06-1.439l16.407.74a.685.685 0 0 1 .44 1.177.678.678 0 0 1-.473.188Zm-.01-.469a.202.202 0 0 0 .16-.061.22.22 0 0 0 .066-.155c0-.117-.09-.21-.207-.215L.732 7.904a.254.254 0 0 0-.187.07.24.24 0 0 0-.075.182c0 .136.108.249.244.253l16.406.666ZM1.42 17.381l-.464-.051a3.045 3.045 0 0 1 3.028-2.705 3.03 3.03 0 0 1 2.579 1.425l-.399.248a2.56 2.56 0 0 0-2.18-1.204A2.581 2.581 0 0 0 1.42 17.38Zm2.564 3.338a3.035 3.035 0 0 1-2.582-1.43l.398-.248a2.566 2.566 0 0 0 2.184 1.209 2.583 2.583 0 0 0 2.513-3.155l.455-.103a3.045 3.045 0 0 1-2.967 3.726Z"/>
  <path fill="#272525" d="M3.984 19.313a1.65 1.65 0 0 1-1.223-.544l.347-.314a1.172 1.172 0 0 0 2.048-.783v-.066l.469-.023c0 .028.005.06.005.089a1.65 1.65 0 0 1-1.646 1.64Zm-1.64-1.557v-.084a1.642 1.642 0 0 1 2.86-1.102l-.348.314a1.185 1.185 0 0 0-.872-.384c-.647 0-1.171.525-1.171 1.172v.06l-.47.024Z"/>
</svg>
